<svg xmlns="http://www.w3.org/2000/svg" width="512" height="512" viewBox="0 0 512 512" role="img" aria-label="Whyroo icon">
  <defs>
    <linearGradient id="bg" x1="0" y1="0" x2="1" y2="1">
      <stop offset="0%" stop-color="#7c3aed"/>
      <stop offset="100%" stop-color="#6d28d9"/>
    </linearGradient>
    <linearGradient id="lens" x1="0" y1="0" x2="1" y2="1">
      <stop offset="0%" stop-color="#ffffff" stop-opacity="0.95"/>
      <stop offset="100%" stop-color="#ddd6fe" stop-opacity="0.9"/>
    </linearGradient>
  </defs>

  <rect x="24" y="24" width="464" height="464" rx="128" fill="url(#bg)"/>
  <circle cx="218" cy="210" r="100" fill="none" stroke="url(#lens)" stroke-width="42"/>
  <circle cx="190" cy="184" r="20" fill="#ffffff" fill-opacity="0.7"/>
  <rect x="292" y="292" width="120" height="48" rx="24" transform="rotate(45 292 292)" fill="#f59e0b"/>
  <circle cx="372" cy="132" r="46" fill="#fb923c"/>
  <path d="M372 114c15 0 27 10 27 24 0 11-6 18-15 24l-10 6v14h-20v-27l15-9c5-3 8-7 8-12 0-6-4-10-10-10-7 0-11 3-14 9l-18-10c6-14 19-25 37-25z" fill="#ffffff"/>
  <circle cx="362" cy="214" r="12" fill="#ffffff"/>
</svg>
