<svg xmlns="http://www.w3.org/2000/svg" viewBox="0 0 64 64" role="img" aria-label="Whyroo favicon">
  <defs>
    <linearGradient id="bg" x1="0" y1="0" x2="1" y2="1">
      <stop offset="0%" stop-color="#6d42ff"/>
      <stop offset="100%" stop-color="#3b82f6"/>
    </linearGradient>
    <linearGradient id="lens" x1="0" y1="0" x2="1" y2="1">
      <stop offset="0%" stop-color="#ffffff" stop-opacity="0.95"/>
      <stop offset="100%" stop-color="#dbeafe" stop-opacity="0.9"/>
    </linearGradient>
  </defs>
  <rect x="4" y="4" width="56" height="56" rx="16" fill="url(#bg)"/>
  <circle cx="29" cy="28" r="13" fill="none" stroke="url(#lens)" stroke-width="6"/>
  <circle cx="25.5" cy="24.5" r="3" fill="#ffffff" fill-opacity="0.75"/>
  <rect x="38.5" y="38" width="15" height="6.5" rx="3.25" transform="rotate(45 38.5 38)" fill="#ffb347"/>
  <circle cx="46" cy="18" r="5.5" fill="#ff8a00"/>
  <path d="M46 15.8c1.8 0 3.2 1.2 3.2 3 0 1.3-.7 2.1-1.8 2.8l-1.2.8v1.6h-2.4v-2.3l1.8-1.2c.7-.4 1-.8 1-1.4 0-.7-.5-1.2-1.2-1.2-.8 0-1.3.4-1.7 1.1l-2.1-1.2c.7-1.7 2.2-3 4.4-3z" fill="#ffffff"/>
  <circle cx="44.9" cy="27.4" r="1.5" fill="#ffffff"/>
</svg>
